HIERARCHY
ROOT Hips
{
	OFFSET 0.000000 100.481300 0.000000
	CHANNELS 6 Xposition Yposition Zposition Xrotation Yrotation Zrotation
	JOINT Spine
	{
		OFFSET -0.279200 12.230698 -2.892100
		CHANNELS 3 Xrotation Yrotation Zrotation
		JOINT Spine1
		{
			OFFSET -0.325700 14.269203 -3.374200
			CHANNELS 3 Xrotation Yrotation Zrotation
			JOINT Spine2
			{
				OFFSET -0.372300 16.307602 -0.352600
				CHANNELS 3 Xrotation Yrotation Zrotation
				JOINT Neck
				{
					OFFSET -0.418800 17.814194 8.416900
					CHANNELS 3 Xrotation Yrotation Zrotation
					JOINT Head
					{
						OFFSET 0.000000 7.031097 3.806800
						CHANNELS 3 Xrotation Yrotation Zrotation
						JOINT HeadTop_End
						{
							OFFSET 0.000000 24.646606 12.978600
							CHANNELS 3 Xrotation Yrotation Zrotation
							End Site
							{
								OFFSET 0.000000 27.854965 0.000000
							}
						}
					}
				}
				JOINT LeftShoulder
				{
					OFFSET 16.952999 14.495407 -7.737500
					CHANNELS 3 Xrotation Yrotation Zrotation
					JOINT LeftArm
					{
						OFFSET 9.308998 -2.777710 0.208600
						CHANNELS 3 Xrotation Yrotation Zrotation
						JOINT LeftForeArm
						{
							OFFSET 29.972298 0.000000 0.000000
							CHANNELS 3 Xrotation Yrotation Zrotation
							JOINT LeftHand
							{
								OFFSET 26.026505 0.000000 0.000000
								CHANNELS 3 Xrotation Yrotation Zrotation
								JOINT LeftHandThumb1
								{
									OFFSET 12.240501 -7.147949 9.207150
									CHANNELS 3 Xrotation Yrotation Zrotation
									JOINT LeftHandThumb2
									{
										OFFSET 4.138618 -2.389435 2.389433
										CHANNELS 3 Xrotation Yrotation Zrotation
										JOINT LeftHandThumb3
										{
											OFFSET 2.726913 -1.574387 1.574386
											CHANNELS 3 Xrotation Yrotation Zrotation
											JOINT LeftHandThumb4
											{
												OFFSET 3.941010 -2.275345 2.275342
												CHANNELS 3 Xrotation Yrotation Zrotation
												End Site
												{
													OFFSET -0.005798 5.087799 0.009903
												}
											}
										}
									}
								}
								JOINT LeftHandIndex1
								{
									OFFSET 24.424698 -1.985611 5.953459
									CHANNELS 3 Xrotation Yrotation Zrotation
									JOINT LeftHandIndex2
									{
										OFFSET 6.426697 0.000000 0.000000
										CHANNELS 3 Xrotation Yrotation Zrotation
										JOINT LeftHandIndex3
										{
											OFFSET 5.337898 0.000000 0.000000
											CHANNELS 3 Xrotation Yrotation Zrotation
											JOINT LeftHandIndex4
											{
												OFFSET 4.409401 0.000000 0.000000
												CHANNELS 3 Xrotation Yrotation Zrotation
												End Site
												{
													OFFSET 0.000000 4.409363 0.014373
												}
											}
										}
									}
								}
								JOINT LeftHandMiddle1
								{
									OFFSET 23.810104 0.000000 0.000000
									CHANNELS 3 Xrotation Yrotation Zrotation
									JOINT LeftHandMiddle2
									{
										OFFSET 7.176498 0.000000 0.000000
										CHANNELS 3 Xrotation Yrotation Zrotation
										JOINT LeftHandMiddle3
										{
											OFFSET 6.774902 0.000000 0.000000
											CHANNELS 3 Xrotation Yrotation Zrotation
											JOINT LeftHandMiddle4
											{
												OFFSET 5.403328 0.000000 0.000000
												CHANNELS 3 Xrotation Yrotation Zrotation
												End Site
												{
													OFFSET -0.027702 5.403244 0.017414
												}
											}
										}
									}
								}
								JOINT LeftHandRing1
								{
									OFFSET 22.908401 -0.839279 -6.020567
									CHANNELS 3 Xrotation Yrotation Zrotation
									JOINT LeftHandRing2
									{
										OFFSET 6.337502 0.000000 0.000000
										CHANNELS 3 Xrotation Yrotation Zrotation
										JOINT LeftHandRing3
										{
											OFFSET 5.779297 0.000000 0.000000
											CHANNELS 3 Xrotation Yrotation Zrotation
											JOINT LeftHandRing4
											{
												OFFSET 4.965698 0.000000 0.000000
												CHANNELS 3 Xrotation Yrotation Zrotation
												End Site
												{
													OFFSET 0.000000 4.965668 0.016186
												}
											}
										}
									}
								}
								JOINT LeftHandPinky1
								{
									OFFSET 20.037003 -1.530319 -10.950146
									CHANNELS 3 Xrotation Yrotation Zrotation
									JOINT LeftHandPinky2
									{
										OFFSET 5.254700 0.000000 0.000000
										CHANNELS 3 Xrotation Yrotation Zrotation
										JOINT LeftHandPinky3
										{
											OFFSET 4.810204 0.000000 0.000000
											CHANNELS 3 Xrotation Yrotation Zrotation
											JOINT LeftHandPinky4
											{
												OFFSET 3.647202 0.000000 0.000000
												CHANNELS 3 Xrotation Yrotation Zrotation
												End Site
												{
													OFFSET 0.000000 3.647186 0.011889
												}
											}
										}
									}
								}
							}
						}
					}
				}
				JOINT RightShoulder
				{
					OFFSET -15.141001 14.495407 -7.737500
					CHANNELS 3 Xrotation Yrotation Zrotation
					JOINT RightArm
					{
						OFFSET -9.308998 -2.777710 0.208500
						CHANNELS 3 Xrotation Yrotation Zrotation
						JOINT RightForeArm
						{
							OFFSET -29.972300 0.000000 0.000000
							CHANNELS 3 Xrotation Yrotation Zrotation
							JOINT RightHand
							{
								OFFSET -26.026505 0.000000 0.000000
								CHANNELS 3 Xrotation Yrotation Zrotation
								JOINT RightHandThumb1
								{
									OFFSET -12.240601 -7.148026 9.207092
									CHANNELS 3 Xrotation Yrotation Zrotation
									JOINT RightHandThumb2
									{
										OFFSET -4.138618 -2.389435 2.389433
										CHANNELS 3 Xrotation Yrotation Zrotation
										JOINT RightHandThumb3
										{
											OFFSET -2.726974 -1.574417 1.574421
											CHANNELS 3 Xrotation Yrotation Zrotation
											JOINT RightHandThumb4
											{
												OFFSET -3.941010 -2.275345 2.275343
												CHANNELS 3 Xrotation Yrotation Zrotation
												End Site
												{
													OFFSET 0.005814 5.087799 0.009927
												}
											}
										}
									}
								}
								JOINT RightHandIndex1
								{
									OFFSET -24.424698 -1.985657 5.953444
									CHANNELS 3 Xrotation Yrotation Zrotation
									JOINT RightHandIndex2
									{
										OFFSET -6.426697 0.000000 0.000000
										CHANNELS 3 Xrotation Yrotation Zrotation
										JOINT RightHandIndex3
										{
											OFFSET -5.337898 0.000000 0.000000
											CHANNELS 3 Xrotation Yrotation Zrotation
											JOINT RightHandIndex4
											{
												OFFSET -4.409401 0.000000 0.000000
												CHANNELS 3 Xrotation Yrotation Zrotation
												End Site
												{
													OFFSET 0.000000 4.409363 0.014408
												}
											}
										}
									}
								}
								JOINT RightHandMiddle1
								{
									OFFSET -23.810097 0.000000 0.000000
									CHANNELS 3 Xrotation Yrotation Zrotation
									JOINT RightHandMiddle2
									{
										OFFSET -7.176498 0.000000 0.000000
										CHANNELS 3 Xrotation Yrotation Zrotation
										JOINT RightHandMiddle3
										{
											OFFSET -6.774902 0.000000 0.000000
											CHANNELS 3 Xrotation Yrotation Zrotation
											JOINT RightHandMiddle4
											{
												OFFSET -5.403328 0.000000 0.000000
												CHANNELS 3 Xrotation Yrotation Zrotation
												End Site
												{
													OFFSET 0.027702 5.403244 0.017457
												}
											}
										}
									}
								}
								JOINT RightHandRing1
								{
									OFFSET -22.908302 -0.839325 -6.020576
									CHANNELS 3 Xrotation Yrotation Zrotation
									JOINT RightHandRing2
									{
										OFFSET -6.337502 0.000000 0.000000
										CHANNELS 3 Xrotation Yrotation Zrotation
										JOINT RightHandRing3
										{
											OFFSET -5.779297 0.000000 0.000000
											CHANNELS 3 Xrotation Yrotation Zrotation
											JOINT RightHandRing4
											{
												OFFSET -4.965698 0.000000 0.000000
												CHANNELS 3 Xrotation Yrotation Zrotation
												End Site
												{
													OFFSET 0.000000 4.965668 0.016226
												}
											}
										}
									}
								}
								JOINT RightHandPinky1
								{
									OFFSET -20.037003 -1.530334 -10.950259
									CHANNELS 3 Xrotation Yrotation Zrotation
									JOINT RightHandPinky2
									{
										OFFSET -5.254700 0.000000 0.000000
										CHANNELS 3 Xrotation Yrotation Zrotation
										JOINT RightHandPinky3
										{
											OFFSET -4.810204 0.000000 0.000000
											CHANNELS 3 Xrotation Yrotation Zrotation
											JOINT RightHandPinky4
											{
												OFFSET -3.647202 0.000000 0.000000
												CHANNELS 3 Xrotation Yrotation Zrotation
												End Site
												{
													OFFSET 0.000000 3.647186 0.011917
												}
											}
										}
									}
								}
							}
						}
					}
				}
			}
		}
	}
	JOINT LeftUpLeg
	{
		OFFSET 15.427100 -6.655098 0.678600
		CHANNELS 3 Xrotation Yrotation Zrotation
		JOINT LeftLeg
		{
			OFFSET 4.081073 -39.591068 13.024000
			CHANNELS 3 Xrotation Yrotation Zrotation
			JOINT LeftFoot
			{
				OFFSET -4.081074 -37.707932 -15.979700
				CHANNELS 3 Xrotation Yrotation Zrotation
				JOINT LeftToeBase
				{
					OFFSET 5.346399 -15.068900 20.645000
					CHANNELS 3 Xrotation Yrotation Zrotation
					JOINT LeftToe_End
					{
						OFFSET 2.754700 0.931300 11.300900
						CHANNELS 3 Xrotation Yrotation Zrotation
						End Site
						{
							OFFSET 0.000000 11.669021 0.000000
						}
					}
				}
			}
		}
	}
	JOINT RightUpLeg
	{
		OFFSET -15.569500 -6.655098 0.678600
		CHANNELS 3 Xrotation Yrotation Zrotation
		JOINT RightLeg
		{
			OFFSET -4.081825 -39.591045 13.023800
			CHANNELS 3 Xrotation Yrotation Zrotation
			JOINT RightFoot
			{
				OFFSET 4.081824 -37.707954 -15.979600
				CHANNELS 3 Xrotation Yrotation Zrotation
				JOINT RightToeBase
				{
					OFFSET -5.346400 -15.068900 20.645000
					CHANNELS 3 Xrotation Yrotation Zrotation
					JOINT RightToe_End
					{
						OFFSET -2.754700 0.931300 11.300900
						CHANNELS 3 Xrotation Yrotation Zrotation
						End Site
						{
							OFFSET 0.000000 11.669021 0.000000
						}
					}
				}
			}
		}
	}
}
MOTION
Frames: 4
Frame Time: 0.033333
16.600288 71.093575 145.800079 23.822549 -39.481987 6.371822 9.362746 -0.748547 2.953526 17.725587 -5.290089 -0.600264 17.724256 -5.278338 -0.667211 1.602431 5.580446 2.281912 -36.444776 35.096251 -5.144820 0.000001 0.000001 -0.000000 0.517783 -1.924461 -4.387330 -37.600328 -15.027287 -32.181147 -0.000131 -72.023361 -0.000135 9.526100 -3.469735 7.129094 -7.938135 -8.665834 11.587987 3.946745 7.971419 0.752858 -0.575592 1.586241 2.542379 0.000001 0.000000 0.000002 0.042460 0.765207 -6.354234 0.042470 0.765221 -6.354215 0.042492 0.765220 -6.354232 0.000001 0.000002 -0.000001 0.093057 1.130468 -9.410992 0.131914 1.344116 -11.211127 0.139422 1.381411 -11.526696 0.000000 -0.000000 -0.000001 0.228087 1.760988 -14.759489 0.320990 2.081656 -17.529138 0.340105 2.141242 -18.048568 0.000002 -0.000002 -0.000000 2.173854 6.472471 -23.043769 0.575438 -1.312461 -23.894802 0.569583 2.746759 -23.425189 0.000003 0.000002 0.000001 0.646045 -1.949828 9.878926 -7.194739 6.225606 57.454786 -0.000019 58.130531 0.000023 6.600507 4.723470 -3.798130 -3.659409 15.254854 -18.672492 4.645035 -8.656784 -0.231321 -1.269836 0.126074 -2.098667 -0.000001 0.000000 -0.000002 0.057325 -0.892861 7.347168 0.057325 -0.892857 7.347170 0.057325 -0.892855 7.347156 0.000001 -0.000000 -0.000000 0.106582 -1.215234 10.024284 0.150152 -1.440062 11.904561 0.159140 -1.482049 12.257136 -0.000001 -0.000000 0.000000 0.240867 -1.817771 15.094993 0.338912 -2.148324 17.927722 0.359110 -2.209745 18.459023 0.000002 0.000000 0.000000 0.582693 -2.791042 23.580426 0.582691 -2.791037 23.580379 0.582689 -2.791031 23.580390 0.000001 -0.000001 -0.000001 -61.574517 -4.144504 10.600263 97.200040 5.816200 -1.138105 -7.777880 1.312689 -15.024937 -14.014831 -1.256364 5.001631 -0.000001 0.000000 0.000001 -62.873626 -10.182732 11.712786 64.731458 -10.558002 -1.334724 -21.149358 -12.648774 -1.699288 0.000009 0.000000 -0.000005 -0.000000 0.000000 0.000000 
16.117979 74.114975 151.321991 25.719513 -40.218309 9.533225 9.126895 -0.604444 2.104492 17.374623 -5.112837 -1.535908 17.379558 -5.071640 -1.596732 1.796480 5.551138 2.258138 -37.105952 34.886294 -4.864968 -0.000001 0.000000 0.000000 0.520502 -1.813872 -4.932093 -36.729520 -13.911507 -30.953273 -0.000034 -73.224477 -0.000035 9.482608 -3.196063 6.204633 -7.938137 -8.665834 11.587988 3.946737 7.971418 0.752861 -0.575596 1.586237 2.542381 -0.000003 -0.000001 -0.000000 0.042463 0.765207 -6.354238 0.042471 0.765226 -6.354214 0.042490 0.765219 -6.354231 0.000000 0.000001 -0.000002 0.093062 1.130470 -9.410992 0.131915 1.344118 -11.211125 0.139420 1.381409 -11.526694 0.000002 0.000000 0.000001 0.228085 1.760990 -14.759489 0.320991 2.081659 -17.529139 0.340105 2.141246 -18.048568 -0.000000 0.000000 -0.000001 2.173854 6.472474 -23.043767 0.575437 -1.312466 -23.894802 0.569579 2.746760 -23.425186 0.000001 0.000002 0.000002 0.650214 -1.912431 9.917101 -7.679610 8.439666 57.575892 -0.000038 59.371501 0.000015 8.389422 4.557908 -3.181932 -3.659410 15.254852 -18.672491 4.645032 -8.656784 -0.231317 -1.269836 0.126076 -2.098673 -0.000000 0.000000 -0.000002 0.057326 -0.892859 7.347170 0.057327 -0.892857 7.347171 0.057326 -0.892854 7.347154 -0.000000 0.000000 -0.000000 0.106582 -1.215233 10.024284 0.150153 -1.440060 11.904560 0.159137 -1.482048 12.257138 -0.000000 0.000000 0.000000 0.240867 -1.817770 15.094993 0.338912 -2.148325 17.927725 0.359116 -2.209745 18.459022 0.000002 0.000000 0.000001 0.582693 -2.791040 23.580426 0.582687 -2.791039 23.580381 0.582693 -2.791031 23.580385 0.000001 0.000000 -0.000001 -67.158607 -6.723524 10.649905 90.528359 7.909641 -0.854201 -9.523253 -0.142079 -5.013718 -0.433155 0.007648 -1.010234 -0.000001 0.000001 -0.000001 -58.357560 -5.994594 8.314632 62.060164 -9.256346 -0.727086 -23.215871 -11.674408 1.271169 -0.258931 -0.000017 -0.000006 -0.000000 0.000004 0.000000 
16.117979 74.114975 151.321991 25.719513 -40.218309 9.533225 9.126895 -0.604444 2.104492 17.374623 -5.112837 -1.535908 17.379558 -5.071640 -1.596732 1.796480 5.551138 2.258138 -37.105952 34.886294 -4.864968 -0.000001 0.000000 0.000000 0.520502 -1.813872 -4.932093 -36.729520 -13.911507 -30.953273 -0.000034 -73.224477 -0.000035 9.482608 -3.196063 6.204633 -7.938137 -8.665834 11.587988 3.946737 7.971418 0.752861 -0.575596 1.586237 2.542381 -0.000003 -0.000001 -0.000000 0.042463 0.765207 -6.354238 0.042471 0.765226 -6.354214 0.042490 0.765219 -6.354231 0.000000 0.000001 -0.000002 0.093062 1.130470 -9.410992 0.131915 1.344118 -11.211125 0.139420 1.381409 -11.526694 0.000002 0.000000 0.000001 0.228085 1.760990 -14.759489 0.320991 2.081659 -17.529139 0.340105 2.141246 -18.048568 -0.000000 0.000000 -0.000001 2.173854 6.472474 -23.043767 0.575437 -1.312466 -23.894802 0.569579 2.746760 -23.425186 0.000001 0.000002 0.000002 0.650214 -1.912431 9.917101 -7.679610 8.439666 57.575892 -0.000038 59.371501 0.000015 8.389422 4.557908 -3.181932 -3.659410 15.254852 -18.672491 4.645032 -8.656784 -0.231317 -1.269836 0.126076 -2.098673 -0.000000 0.000000 -0.000002 0.057326 -0.892859 7.347170 0.057327 -0.892857 7.347171 0.057326 -0.892854 7.347154 -0.000000 0.000000 -0.000000 0.106582 -1.215233 10.024284 0.150153 -1.440060 11.904560 0.159137 -1.482048 12.257138 -0.000000 0.000000 0.000000 0.240867 -1.817770 15.094993 0.338912 -2.148325 17.927725 0.359116 -2.209745 18.459022 0.000002 0.000000 0.000001 0.582693 -2.791040 23.580426 0.582687 -2.791039 23.580381 0.582693 -2.791031 23.580385 0.000001 0.000000 -0.000001 -67.158607 -6.723524 10.649905 90.528359 7.909641 -0.854201 -9.523253 -0.142079 -5.013718 -0.433155 0.007648 -1.010234 -0.000001 0.000001 -0.000001 -58.357560 -5.994594 8.314632 62.060164 -9.256346 -0.727086 -23.215871 -11.674408 1.271169 -0.258931 -0.000017 -0.000006 -0.000000 0.000004 0.000000 
16.117979 74.114975 151.321991 25.719513 -40.218309 9.533225 9.126895 -0.604444 2.104492 17.374623 -5.112837 -1.535908 17.379558 -5.071640 -1.596732 1.796480 5.551138 2.258138 -37.105952 34.886294 -4.864968 -0.000001 0.000000 0.000000 0.520502 -1.813872 -4.932093 -36.729520 -13.911507 -30.953273 -0.000034 -73.224477 -0.000035 9.482608 -3.196063 6.204633 -7.938137 -8.665834 11.587988 3.946737 7.971418 0.752861 -0.575596 1.586237 2.542381 -0.000003 -0.000001 -0.000000 0.042463 0.765207 -6.354238 0.042471 0.765226 -6.354214 0.042490 0.765219 -6.354231 0.000000 0.000001 -0.000002 0.093062 1.130470 -9.410992 0.131915 1.344118 -11.211125 0.139420 1.381409 -11.526694 0.000002 0.000000 0.000001 0.228085 1.760990 -14.759489 0.320991 2.081659 -17.529139 0.340105 2.141246 -18.048568 -0.000000 0.000000 -0.000001 2.173854 6.472474 -23.043767 0.575437 -1.312466 -23.894802 0.569579 2.746760 -23.425186 0.000001 0.000002 0.000002 0.650214 -1.912431 9.917101 -7.679610 8.439666 57.575892 -0.000038 59.371501 0.000015 8.389422 4.557908 -3.181932 -3.659410 15.254852 -18.672491 4.645032 -8.656784 -0.231317 -1.269836 0.126076 -2.098673 -0.000000 0.000000 -0.000002 0.057326 -0.892859 7.347170 0.057327 -0.892857 7.347171 0.057326 -0.892854 7.347154 -0.000000 0.000000 -0.000000 0.106582 -1.215233 10.024284 0.150153 -1.440060 11.904560 0.159137 -1.482048 12.257138 -0.000000 0.000000 0.000000 0.240867 -1.817770 15.094993 0.338912 -2.148325 17.927725 0.359116 -2.209745 18.459022 0.000002 0.000000 0.000001 0.582693 -2.791040 23.580426 0.582687 -2.791039 23.580381 0.582693 -2.791031 23.580385 0.000001 0.000000 -0.000001 -67.158607 -6.723524 10.649905 90.528359 7.909641 -0.854201 -9.523253 -0.142079 -5.013718 -0.433155 0.007648 -1.010234 -0.000001 0.000001 -0.000001 -58.357560 -5.994594 8.314632 62.060164 -9.256346 -0.727086 -23.215871 -11.674408 1.271169 -0.258931 -0.000017 -0.000006 -0.000000 0.000004 0.000000 
